<svg id="Layer_1" data-name="Layer 1" xmlns="http://www.w3.org/2000/svg" xmlns:xlink="http://www.w3.org/1999/xlink" viewBox="0 0 105.46 131.28"><defs><style>.cls-1{fill:none;}.cls-2{clip-path:url(#clip-path);}.cls-3{fill:url(#linear-gradient);}.cls-4{fill:url(#linear-gradient-2);}.cls-5{fill:url(#linear-gradient-3);}.cls-6{fill:url(#linear-gradient-4);}.cls-7{fill:url(#linear-gradient-5);}.cls-8{fill:url(#linear-gradient-6);}.cls-9{fill:url(#linear-gradient-7);}.cls-10{fill:url(#linear-gradient-8);}.cls-11{fill:url(#linear-gradient-9);}.cls-12{fill:url(#linear-gradient-10);}.cls-13{fill:url(#linear-gradient-11);}.cls-14{fill:url(#linear-gradient-12);}.cls-15{fill:url(#linear-gradient-13);}.cls-16{fill:url(#linear-gradient-14);}.cls-17{fill:url(#linear-gradient-15);}.cls-18,.cls-25,.cls-29{fill:#fff;}.cls-19{fill:url(#linear-gradient-16);}.cls-20{fill:url(#linear-gradient-17);}.cls-21{fill:url(#linear-gradient-18);}.cls-22{fill:url(#linear-gradient-19);}.cls-23{fill:url(#linear-gradient-20);}.cls-24{fill:url(#linear-gradient-21);}.cls-25{font-size:6.36px;font-family:OpenSans-Regular, Open Sans;letter-spacing:0.05em;}.cls-26{fill:#f26e21;}.cls-26,.cls-28{letter-spacing:0.05em;}.cls-27{letter-spacing:0.05em;}.cls-28{fill:#f9b647;}.cls-29{font-size:26px;font-family:OpenSans-SemiBold, Open Sans;font-weight:600;letter-spacing:0.01em;}</style><clipPath id="clip-path" transform="translate(-71.43 -10.22)"><rect class="cls-1" width="249.8" height="150"/></clipPath><linearGradient id="linear-gradient" x1="101.26" y1="105.08" x2="101.26" y2="2.74" gradientTransform="translate(-0.51 -0.27) rotate(0.21)" gradientUnits="userSpaceOnUse"><stop offset="0" stop-color="#f9b647"/><stop offset="1" stop-color="#f26e21"/></linearGradient><linearGradient id="linear-gradient-2" x1="130.44" y1="105.08" x2="130.44" y2="2.74" xlink:href="#linear-gradient"/><linearGradient id="linear-gradient-3" x1="137.67" y1="105.08" x2="137.67" y2="2.74" xlink:href="#linear-gradient"/><linearGradient id="linear-gradient-4" x1="136.51" y1="105.07" x2="136.51" y2="2.74" xlink:href="#linear-gradient"/><linearGradient id="linear-gradient-5" x1="135.08" y1="105.08" x2="135.08" y2="2.74" xlink:href="#linear-gradient"/><linearGradient id="linear-gradient-6" x1="126.09" y1="105.07" x2="126.09" y2="2.74" xlink:href="#linear-gradient"/><linearGradient id="linear-gradient-7" x1="126.09" y1="105.08" x2="126.09" y2="2.74" xlink:href="#linear-gradient"/><linearGradient id="linear-gradient-8" x1="101.98" y1="105.08" x2="101.98" y2="2.74" xlink:href="#linear-gradient"/><linearGradient id="linear-gradient-9" x1="110.47" y1="105.08" x2="110.47" y2="2.74" xlink:href="#linear-gradient"/><linearGradient id="linear-gradient-10" x1="115.49" y1="105.08" x2="115.49" y2="2.74" xlink:href="#linear-gradient"/><linearGradient id="linear-gradient-11" x1="120.6" y1="105.08" x2="120.6" y2="2.74" xlink:href="#linear-gradient"/><linearGradient id="linear-gradient-12" x1="125.97" y1="105.08" x2="125.97" y2="2.74" xlink:href="#linear-gradient"/><linearGradient id="linear-gradient-13" x1="118.41" y1="105.08" x2="118.41" y2="2.74" xlink:href="#linear-gradient"/><linearGradient id="linear-gradient-14" x1="123.42" y1="105.08" x2="123.42" y2="2.74" xlink:href="#linear-gradient"/><linearGradient id="linear-gradient-15" x1="118.6" y1="105.08" x2="118.6" y2="2.74" xlink:href="#linear-gradient"/><linearGradient id="linear-gradient-16" x1="141.6" y1="91.52" x2="141.6" y2="5.45" xlink:href="#linear-gradient"/><linearGradient id="linear-gradient-17" x1="166.06" y1="133.82" x2="166.06" y2="47.74" xlink:href="#linear-gradient"/><linearGradient id="linear-gradient-18" x1="162.43" y1="111.91" x2="162.43" y2="25.83" xlink:href="#linear-gradient"/><linearGradient id="linear-gradient-19" x1="155.95" y1="154.17" x2="155.95" y2="68.09" xlink:href="#linear-gradient"/><linearGradient id="linear-gradient-20" x1="127.09" y1="193.14" x2="127.09" y2="90.81" xlink:href="#linear-gradient"/><linearGradient id="linear-gradient-21" x1="127.09" y1="193.15" x2="127.09" y2="90.81" xlink:href="#linear-gradient"/></defs><title>orbailax web</title><g id="logo"><path class="cls-3" d="M123.1,104A45.89,45.89,0,0,1,91,90.3,45.53,45.53,0,0,1,91.2,26a45.82,45.82,0,0,1,32.23-13.42l0,3.59a42.12,42.12,0,0,0-.3,84.23Z" transform="translate(-71.43 -10.22)"/><path class="cls-4" d="M140.61,49.14l-21.71-.07a1.8,1.8,0,1,1,0-3.59l19.91.07.07-19.07a1.81,1.81,0,0,1,3.61,0l-.08,20.87A1.78,1.78,0,0,1,140.61,49.14Z" transform="translate(-71.43 -10.22)"/><path class="cls-5" d="M161.65,57.54l-49.41-.18a1.8,1.8,0,1,1,0-3.59l47.61.17,0-6.71a1.81,1.81,0,0,1,1.82-1.79,1.79,1.79,0,0,1,1.79,1.8l0,8.51A1.8,1.8,0,0,1,161.65,57.54Z" transform="translate(-71.43 -10.22)"/><path class="cls-6" d="M160.29,65.86l-49.06-.18a1.8,1.8,0,1,1,0-3.59l49.06.18a1.8,1.8,0,1,1,0,3.59Z" transform="translate(-71.43 -10.22)"/><path class="cls-7" d="M150.25,86.21l-7.38,0a1.8,1.8,0,0,1-1.8-1.8l0-9.92-22.8-.08a1.8,1.8,0,1,1,0-3.59l24.59.09a1.79,1.79,0,0,1,1.8,1.8l0,9.92,5.57,0a1.8,1.8,0,1,1,0,3.59Z" transform="translate(-71.43 -10.22)"/><path class="cls-8" d="M127.73,14.22a2.21,2.21,0,1,1-2.2-2.2A2.2,2.2,0,0,1,127.73,14.22Z" transform="translate(-71.43 -10.22)"/><path class="cls-9" d="M125.51,18.21a4,4,0,1,1,4-4A4,4,0,0,1,125.51,18.21Zm0-4.4a.4.4,0,0,0-.41.4.42.42,0,0,0,.4.41.41.41,0,0,0,.41-.4A.4.4,0,0,0,125.53,13.81Z" transform="translate(-71.43 -10.22)"/><path class="cls-10" d="M100.64,68.45a8.74,8.74,0,0,1-2.78-.52c-5.6-2-11.11-9.19-11.73-12.85-.23-1.39-1.17-1.79-3.6-2.5A20.75,20.75,0,0,1,80,51.73a1.79,1.79,0,0,1-.92-2.37,1.81,1.81,0,0,1,2.38-.92,17.25,17.25,0,0,0,2.07.7c2.33.67,5.52,1.6,6.15,5.35.4,2.36,5,8.5,9.38,10.06,1.74.61,2.67.19,3.23-.25-.09-.93-1.81-3.31-2.86-4.77-2.26-3.13-4.2-5.83-3.42-8.21a3.53,3.53,0,0,1,2.46-2.23,11.79,11.79,0,0,1,4.91-.6c1,.07,1.2.08,3-2.66,2.44-3.76,7-4.76,10.26-5.48a13.05,13.05,0,0,0,3.43-1c0-1-1.08-2.35-2.55-3.29s-3.77-1.7-5.69-.85c-3.83,1.71-7.18.46-8.38-1.58a3.8,3.8,0,0,1,1.33-5.1A6.52,6.52,0,0,0,107.21,25a4.28,4.28,0,0,0-1,.09,16.12,16.12,0,0,1-9-.76,1.8,1.8,0,0,1-1-2.35,1.82,1.82,0,0,1,2.37-1,12.55,12.55,0,0,0,6.91.56c3.37-.66,4.58.84,5,1.8,1.16,2.6-1.34,6.3-3.6,8a1.07,1.07,0,0,0-.38.41,1.47,1.47,0,0,0,.51.36,4,4,0,0,0,3.3-.25A9.69,9.69,0,0,1,119.49,33c2.59,1.67,4.2,4.12,4.19,6.39,0,3.08-3.33,3.81-6.26,4.45s-6.37,1.4-8,3.92c-2.51,3.88-3.77,4.47-6.26,4.3a8.28,8.28,0,0,0-3.57.44l-.12,0c.08,1,1.91,3.5,2.92,4.89,2.51,3.5,5.12,7.11,2.43,9.45A6.19,6.19,0,0,1,100.64,68.45Z" transform="translate(-71.43 -10.22)"/><path class="cls-11" d="M97.26,95.25a1.79,1.79,0,0,1-1.09-.37c-1.87-1.41-4.88-5.29-2.93-9.84a13.7,13.7,0,0,1,5.48-6.18,11.66,11.66,0,0,0,2.15-1.73,10.91,10.91,0,0,0,1.48-3.06c.85-2.28,1.91-5.1,4.75-5.2,2.14-.05,3.63,1.79,5.35,3.93s3.5,4.36,6,5.27a12.45,12.45,0,0,0,3.19.54,9.57,9.57,0,0,1,4.17,1,1.78,1.78,0,0,1,.63,2.46,1.8,1.8,0,0,1-2.47.62,7.6,7.6,0,0,0-2.63-.47,15.64,15.64,0,0,1-4.14-.75c-3.45-1.26-5.73-4.11-7.57-6.4-.79-1-2-2.45-2.47-2.58-.36,0-1.11,2-1.42,2.86a13.41,13.41,0,0,1-2.15,4.17,14.75,14.75,0,0,1-2.8,2.32,10.12,10.12,0,0,0-4.23,4.64C95.21,89.59,98.33,92,98.36,92a1.79,1.79,0,0,1,.34,2.52A1.83,1.83,0,0,1,97.26,95.25Z" transform="translate(-71.43 -10.22)"/><path class="cls-12" d="M114.87,28.62a1.8,1.8,0,0,1-1.8-1.8l0-5.87a1.81,1.81,0,0,1,3.61,0l0,5.87A1.8,1.8,0,0,1,114.87,28.62Z" transform="translate(-71.43 -10.22)"/><path class="cls-13" d="M120,31.33a1.79,1.79,0,0,1-1.8-1.8l0-8.56a1.81,1.81,0,0,1,3.61,0l0,8.56A1.81,1.81,0,0,1,120,31.33Z" transform="translate(-71.43 -10.22)"/><path class="cls-14" d="M125.32,36a1.81,1.81,0,0,1-1.8-1.8l0-13.16a1.81,1.81,0,0,1,1.81-1.79,1.79,1.79,0,0,1,1.8,1.8l-.05,13.17A1.78,1.78,0,0,1,125.32,36Z" transform="translate(-71.43 -10.22)"/><path class="cls-15" d="M121.86,88.28l-8.57,0a1.8,1.8,0,1,1,0-3.59l8.57,0a1.8,1.8,0,1,1,0,3.59Z" transform="translate(-71.43 -10.22)"/><path class="cls-16" d="M126.15,93.06,119,93a1.8,1.8,0,1,1,0-3.59l7.16,0a1.8,1.8,0,1,1,0,3.59Z" transform="translate(-71.43 -10.22)"/><path class="cls-17" d="M121.32,97.8l-7.17,0a1.8,1.8,0,1,1,0-3.59l7.16,0a1.8,1.8,0,1,1,0,3.59Z" transform="translate(-71.43 -10.22)"/><path class="cls-18" d="M161.06,40.55v1.18l-.33.37-.11-.12V40.36ZM160.61,44V42.35l.11-.12.33.37v1.19Zm1.9.44h-1.63a.36.36,0,0,1-.27-.31l.43-.19h1.31Zm-.15-4h-1.3l-.43-.19a.36.36,0,0,1,.27-.31h1.63Zm.11,1.31V40.43l.17-.5a.39.39,0,0,1,.27.31V42l-.11.12Zm.32.5.11.12V44.1a.38.38,0,0,1-.28.31l-.16-.49V42.61Z" transform="translate(-71.43 -10.22)"/><path class="cls-18" d="M140.68,21.24V19.67l.23-.6a.49.49,0,0,1,.38.38v2.09l-.15.15Zm.45.6.15.15v2.1a.48.48,0,0,1-.38.37l-.22-.6V22.29Z" transform="translate(-71.43 -10.22)"/><path class="cls-19" d="M141,17.61a4.12,4.12,0,1,0,4.12,4.13A4.13,4.13,0,0,0,141,17.61Zm0,7.1a2.94,2.94,0,1,1,3-2.93A2.95,2.95,0,0,1,141,24.71Z" transform="translate(-71.43 -10.22)"/><path class="cls-18" d="M165,63.61V62l.25-.61a.5.5,0,0,1,.41.38v2.15l-.16.16Zm.5.62.16.16v2.15a.53.53,0,0,1-.42.38l-.25-.61V64.69Z" transform="translate(-71.43 -10.22)"/><path class="cls-20" d="M165.33,60a4.11,4.11,0,1,0,4.12,4.13A4.12,4.12,0,0,0,165.33,60Zm0,7.09a2.94,2.94,0,1,1,3-2.93A2.93,2.93,0,0,1,165.3,67.09Z" transform="translate(-71.43 -10.22)"/><path class="cls-21" d="M161.77,38.07a4.12,4.12,0,1,0,4.12,4.13A4.14,4.14,0,0,0,161.77,38.07Zm0,7.1a2.94,2.94,0,1,1,3-2.93A2.95,2.95,0,0,1,161.75,45.17Z" transform="translate(-71.43 -10.22)"/><path class="cls-18" d="M154.43,82.78V84l-.33.37-.1-.12V82.59ZM154,86.2V84.58l.11-.12.33.37V86Zm1.9.44h-1.63a.36.36,0,0,1-.27-.31l.43-.19h1.31Zm-.15-4h-1.3l-.43-.19a.39.39,0,0,1,.27-.31h1.63Zm.11,1.31V82.66l.17-.5a.39.39,0,0,1,.27.31v1.75l-.11.12Zm.32.5.11.12v1.74a.4.4,0,0,1-.28.32l-.16-.5V84.84Z" transform="translate(-71.43 -10.22)"/><path class="cls-22" d="M155.15,80.31a4.11,4.11,0,1,0,4.12,4.12A4.11,4.11,0,0,0,155.15,80.31Zm0,7.09a2.94,2.94,0,1,1,3-2.93A2.95,2.95,0,0,1,155.12,87.4Z" transform="translate(-71.43 -10.22)"/><path class="cls-18" d="M123.22,14.22h-1.17l2.13-2.39h.43l.32.47Zm1.69,2.18-.32.47h-.42l-2.12-2.42h1.17Z" transform="translate(-71.43 -10.22)"/><path class="cls-18" d="M126,12.29l.32-.46h.43l2.12,2.41h-1.17Zm1.69,2.18h1.17l-2.13,2.39h-.43L126,16.4Z" transform="translate(-71.43 -10.22)"/><path class="cls-18" d="M123.22,14.22h-1.17l2.13-2.39h.43l.32.47Zm1.69,2.18-.32.47h-.42l-2.12-2.42h1.17Z" transform="translate(-71.43 -10.22)"/><path class="cls-18" d="M126,12.29l.32-.46h.43l2.12,2.41h-1.17Zm1.69,2.18h1.17l-2.13,2.39h-.43L126,16.4Z" transform="translate(-71.43 -10.22)"/><path class="cls-23" d="M128.41,102.29a2.21,2.21,0,1,1-2.2-2.2A2.2,2.2,0,0,1,128.41,102.29Z" transform="translate(-71.43 -10.22)"/><path class="cls-24" d="M126.19,106.28a4,4,0,1,1,4-4A4,4,0,0,1,126.19,106.28Zm0-4.39a.39.39,0,0,0-.4.4.4.4,0,1,0,.8,0A.39.39,0,0,0,126.2,101.89Z" transform="translate(-71.43 -10.22)"/><path class="cls-18" d="M123.9,102.29h-1.18l2.14-2.4h.43l.31.47Zm1.69,2.18-.32.47h-.43l-2.12-2.41h1.17Z" transform="translate(-71.43 -10.22)"/><path class="cls-18" d="M126.67,100.37l.32-.47h.42l2.12,2.41h-1.17Zm1.69,2.18h1.17L127.4,105H127l-.32-.47Z" transform="translate(-71.43 -10.22)"/><path class="cls-18" d="M126.13,102.77l-.35.91a.23.23,0,0,1-.24-.15l.46-1.16h.14Zm.07-.88.36-.91a.23.23,0,0,1,.24.15l-.46,1.16h-.14Z" transform="translate(-71.43 -10.22)"/></g><text class="cls-25" transform="translate(2.89 129.56) scale(1.01 1)">where <tspan class="cls-26" x="22.13" y="0">security</tspan><tspan class="cls-27" x="47.84" y="0" xml:space="preserve"> meets </tspan><tspan class="cls-28" x="71.69" y="0">solutions</tspan></text><text class="cls-29" transform="translate(0 121.12) scale(0.88 1)">ORBAILIX</text></svg>